<svg aria-hidden="true" style="width:0;height:0;position:absolute;overflow:hidden" xmlns="http://www.w3.org/2000/svg"><defs><symbol id="icon-arrow-down" viewBox="0 0 32 32"><path d="M3.76 9.143 0 12.622l16 14.806 16-14.806-3.76-3.479L16 20.445 3.76 9.143z"/></symbol><symbol id="icon-arrow-up" viewBox="0 0 32 32"><path d="M3.76 25.143 0 21.664 16 6.858l16 14.806-3.76 3.479L16 13.841 3.76 25.143z"/></symbol><symbol id="icon-search" viewBox="0 0 32 32"><path d="M13.333 23.6c2.367 0 4.665-.753 6.529-2.138l5.861 5.568 1.885-1.791-5.861-5.568a9.755 9.755 0 0 0 2.252-6.204c0-5.587-4.785-10.133-10.667-10.133S2.665 7.88 2.665 13.467c0 5.587 4.785 10.133 10.667 10.133zm0-17.733c4.412 0 8 3.409 8 7.6s-3.588 7.6-8 7.6-8-3.409-8-7.6 3.588-7.6 8-7.6z"/></symbol><symbol id="icon-calendar" viewBox="0 0 32 32"><path d="M22.667 4H28a1.335 1.335 0 0 1 1.334 1.334v21.333A1.335 1.335 0 0 1 28 28.001H4a1.33 1.33 0 0 1-1.333-1.334V5.334A1.333 1.333 0 0 1 4 4h5.333V1.333H12V4h8V1.333h2.667V4zm4 10.667H5.334v10.667h21.333V14.667zm-6.667-8h-8v2.667H9.333V6.667h-4V12h21.333V6.667h-4v2.667h-2.667V6.667zM8 17.333h2.667V20H8v-2.667zm6.667 0h2.667V20h-2.667v-2.667zm6.666 0H24V20h-2.667v-2.667z"/></symbol><symbol id="icon-favorite" viewBox="0 0 32 32"><path fill="#4440f6" d="M32 16c0 8.837-7.163 16-16 16S0 24.837 0 16 7.163 0 16 0s16 7.163 16 16z" style="fill:var(--color1,#4440f6)"/><path fill="none" stroke="#f4f4f4" stroke-linecap="round" stroke-linejoin="round" d="M22.63 10.457a4.111 4.111 0 0 0-4.496-.895 4.1 4.1 0 0 0-1.338.895l-.795.795-.795-.795a4.125 4.125 0 0 0-5.836 0 4.125 4.125 0 0 0 0 5.835l6.63 6.63 6.63-6.63a4.111 4.111 0 0 0 .895-4.496 4.116 4.116 0 0 0-.895-1.338v0z" style="stroke:var(--color3,#f4f4f4)"/></symbol><symbol id="icon-heart" viewBox="0 0 32 32"><path fill="#f4f4f4" stroke="#4440f7" stroke-linecap="round" stroke-linejoin="round" stroke-width="2" d="M9.333 4c-3.681 0-6.667 2.955-6.667 6.6 0 2.943 1.167 9.927 12.651 16.987a1.316 1.316 0 0 0 1.366 0c11.484-7.06 12.651-14.044 12.651-16.987 0-3.645-2.985-6.6-6.667-6.6S16 8 16 8s-2.985-4-6.667-4z" style="stroke:var(--color2,#4440f7)"/></symbol><symbol id="icon-heart-full" viewBox="0 0 32 32"><path fill="#4b48da" d="M9.333 4c-3.681 0-6.667 2.955-6.667 6.6 0 2.943 1.167 9.927 12.651 16.987a1.316 1.316 0 0 0 1.366 0c11.484-7.06 12.651-14.044 12.651-16.987 0-3.645-2.985-6.6-6.667-6.6S16 8 16 8s-2.985-4-6.667-4z" style="fill:var(--color4,#4b48da)"/></symbol><symbol id="icon-home" viewBox="0 0 32 32"><path fill="#4440f6" d="M32 16c0 8.837-7.163 16-16 16S0 24.837 0 16 7.163 0 16 0s16 7.163 16 16z" style="fill:var(--color1,#4440f6)"/><path fill="none" stroke="#f4f4f4" stroke-linecap="round" stroke-linejoin="round" d="M9.25 13.75 16 8.5l6.75 5.25V22a1.503 1.503 0 0 1-1.5 1.5h-10.5a1.503 1.503 0 0 1-1.5-1.5v-8.25z" style="stroke:var(--color3,#f4f4f4)"/><path fill="none" stroke="#f4f4f4" stroke-linecap="round" stroke-linejoin="round" d="M13.75 23.5V16h4.5v7.5" style="stroke:var(--color3,#f4f4f4)"/></symbol><symbol id="icon-read" viewBox="0 0 32 32"><path fill="#4440f6" d="M32 16c0 8.837-7.163 16-16 16S0 24.837 0 16 7.163 0 16 0s16 7.163 16 16z" style="fill:var(--color1,#4440f6)"/><path fill="none" stroke="#f4f4f4" stroke-linecap="round" stroke-linejoin="round" d="M8.5 9.25H13a3.004 3.004 0 0 1 3 3v10.5a2.25 2.25 0 0 0-2.25-2.25H8.5V9.25zm15 0H19a3.004 3.004 0 0 0-3 3v10.5a2.25 2.25 0 0 1 2.25-2.25h5.25V9.25z" style="stroke:var(--color3,#f4f4f4)"/></symbol><symbol id="icon-theme-dark" viewBox="0 0 32 32"><path fill="none" stroke="#5f6775" stroke-linecap="round" stroke-linejoin="round" stroke-width="2.286" d="M28 17.053a11.994 11.994 0 0 1-7.873 10.182A12.003 12.003 0 0 1 4.338 18.56 12.002 12.002 0 0 1 14.946 3.999 9.335 9.335 0 0 0 28 17.053v0z" style="stroke:var(--color5,#5f6775)"/></symbol><symbol id="icon-theme-light" viewBox="0 0 32 32"><path fill="none" stroke="#4b48db" stroke-linecap="round" stroke-linejoin="round" stroke-width="2.286" d="M16 1.778v2.586m0 23.272v2.586M5.941 5.941l1.836 1.836m16.446 16.446 1.836 1.836M1.778 16h2.586m23.272 0h2.586M5.941 26.059l1.836-1.836M24.223 7.777l1.836-1.836M22.465 16a6.465 6.465 0 1 1-12.93 0 6.465 6.465 0 0 1 12.93 0z" style="stroke:var(--color6,#4b48db)"/></symbol><symbol id="icon-menu" viewBox="0 0 48 32"><path d="M0 5.334V0h48v5.334H0zm0 13.332h48v-5.332H0v5.332zM0 32h48v-5.334H0V32z"/></symbol><symbol id="icon-menuclose" viewBox="0 0 32 32"><path d="M31.439 3.166 28.273 0 15.719 12.552 3.167 0 .001 3.166l12.552 12.552L.001 28.272l3.166 3.166 12.552-12.554 12.554 12.554 3.166-3.166-12.554-12.554L31.439 3.166z"/><symbol id="icon-next" viewBox="0 0 32 32"><path d="m16.229 16-3.772-3.771 1.885-1.887 5.657 5.657-5.657 5.657-1.885-1.887 3.772-3.771z"/></symbol><symbol id="icon-prew" viewBox="0 0 32 32"><path d="m14.437 16 6.6 6.6-1.885 1.885L10.667 16l8.485-8.485L21.037 9.4l-6.6 6.6z"/></symbol><symbol id="icon-location" viewBox="0 0 32 32"><path fill="#fff" d="M16 2A11.018 11.018 0 0 0 5 13a10.892 10.892 0 0 0 2.216 6.6s.3.395.349.452L16 30l8.439-9.953c.044-.053.345-.447.345-.447l.001-.003A10.89 10.89 0 0 0 27 13 11.018 11.018 0 0 0 16 2zm0 15a4.004 4.004 0 0 1-3.695-2.469A4 4 0 1 1 20 13a4.004 4.004 0 0 1-4 4z" style="fill:var(--color1,#fff)"/></symbol><symbol id="icon-chevron-right" viewBox="0 0 18 32"><path fill="none" stroke="#f4f4f4" stroke-width="4.571" stroke-linecap="round" stroke-linejoin="round" style="stroke:var(--color1,#f4f4f4)" d="M2.286 29.714 16 16 2.286 2.286"/></symbol><symbol id="icon-sun" viewBox="0 0 24 24"><path d="M18 12c0-1.657-.673-3.158-1.757-4.243S13.657 6 12 6s-3.158.673-4.243 1.757S6 10.343 6 12s.673 3.158 1.757 4.243S10.343 18 12 18s3.158-.673 4.243-1.757S18 13.657 18 12zm-2 0c0 1.105-.447 2.103-1.172 2.828S13.105 16 12 16s-2.103-.447-2.828-1.172S8 13.105 8 12s.447-2.103 1.172-2.828S10.895 8 12 8s2.103.447 2.828 1.172S16 10.895 16 12zM11 1v2a1 1 0 0 0 2 0V1a1 1 0 0 0-2 0zm0 20v2a1 1 0 0 0 2 0v-2a1 1 0 0 0-2 0zM3.513 4.927l1.42 1.42a.999.999 0 1 0 1.414-1.414l-1.42-1.42a.999.999 0 1 0-1.414 1.414zm14.14 14.14 1.42 1.42a.999.999 0 1 0 1.414-1.414l-1.42-1.42a.999.999 0 1 0-1.414 1.414zM1 13h2a1 1 0 0 0 0-2H1a1 1 0 0 0 0 2zm20 0h2a1 1 0 0 0 0-2h-2a1 1 0 0 0 0 2zM4.927 20.487l1.42-1.42a.999.999 0 1 0-1.414-1.414l-1.42 1.42a.999.999 0 1 0 1.414 1.414zm14.14-14.14 1.42-1.42a.999.999 0 1 0-1.414-1.414l-1.42 1.42a.999.999 0 1 0 1.414 1.414z"/></symbol><symbol id="icon-moon" viewBox="0 0 24 24"><path d="M21.996 12.882a1 1 0 0 0-1.585-.9 6.11 6.11 0 0 1-3.188 1.162 5.948 5.948 0 0 1-3.95-1.158c-1.333-.985-2.139-2.415-2.367-3.935s.124-3.124 1.109-4.456a.998.998 0 0 0-.901-1.589 10.082 10.082 0 0 0-5.895 2.651 9.943 9.943 0 0 0-3.137 6.386c-.254 2.749.631 5.343 2.266 7.311s4.022 3.313 6.772 3.567 5.343-.631 7.311-2.266 3.313-4.022 3.567-6.772zm-2.429 1.792a7.988 7.988 0 0 1-2.416 3.441c-1.576 1.309-3.648 2.016-5.848 1.813s-4.108-1.278-5.417-2.854-2.016-3.648-1.813-5.848A7.932 7.932 0 0 1 6.58 6.12a8.058 8.058 0 0 1 2.731-1.672 8.008 8.008 0 0 0 2.772 9.146 7.94 7.94 0 0 0 5.272 1.545 8.083 8.083 0 0 0 2.21-.465z"/></symbol></symbol></defs></svg>